<svg xmlns="http://www.w3.org/2000/svg" viewBox="0 0 271.58 260.7"><defs><style>.cls-1{fill:#f89820;}</style></defs><g id="Layer_2" data-name="Layer 2"><g id="Layer_1-2" data-name="Layer 1"><path class="cls-1" d="M271.58.79v13.7q0,34.42-.08,68.84c-.07,24.12-.25,48.25-.29,72.37q-.07,46.91,0,93.82c0,11.21,0,11.08-11.1,11.08q-125.79,0-251.59.1c-8.21,0-8.49-.19-8.49-8.25Q0,130.9.05,9.34C.05,6.58,1.29,3.82,2,1.06,4.23,2.53,6.81,3.7,8.74,5.53q29.1,27.6,58,55.38C78.84,72.47,90.84,84.1,103,95.56c3.1,2.94,3.26,5.27.11,8.24q-25.94,24.4-51.74,49c-5.9,5.6-11.7,11.32-17.69,16.82-2.13,2-2.11,3.5-.11,5.36,6.92,6.44,14.12,12.62,20.61,19.48,3.89,4.11,6.46,3.18,9.89-.12,10.42-10,21.08-19.8,31.45-29.87,6.47-6.27,12.32-13.19,18.94-19.29,7.2-6.62,15-12.63,23.21-19.51,0,2.49.31,4.38,0,6.13-1.28,6.33-3.08,12.57-4.05,18.94a9.39,9.39,0,0,0,2,6.95,229.5,229.5,0,0,0,17,16.72C174,193.25,194,213.59,215,232.89c5,4.6,6,4.62,10.83,0,6.33-6.1,12.74-12.12,19.35-17.92,2.89-2.53,2.78-4.35.11-6.85q-32-30-63.85-60.08c-10.24-9.68-20.23-19.64-30.58-29.2-3-2.73-2.55-4.27.07-6.73q22.71-21.37,45.24-42.95Q229.86,37.06,263.51,5c1.86-1.76,3.89-3.33,5.84-5Z"/></g></g></svg>